<?xml version="1.0" encoding="UTF-8" standalone="no"?>
<!-- Created with Inkscape (http://www.inkscape.org/) -->

<svg
   xmlns:dc="http://purl.org/dc/elements/1.1/"
   xmlns:cc="http://creativecommons.org/ns#"
   xmlns:rdf="http://www.w3.org/1999/02/22-rdf-syntax-ns#"
   xmlns:svg="http://www.w3.org/2000/svg"
   xmlns="http://www.w3.org/2000/svg"
   xmlns:sodipodi="http://sodipodi.sourceforge.net/DTD/sodipodi-0.dtd"
   xmlns:inkscape="http://www.inkscape.org/namespaces/inkscape"
   width="20cm"
   height="3cm"
   viewBox="0 0 200 29.999999"
   version="1.1"
   id="svg4789"
   inkscape:export-filename="D:\Mes documents\Documents\Jeux\SDL\image.png"
   inkscape:export-xdpi="156.73473"
   inkscape:export-ydpi="156.73473"
   inkscape:version="0.92.3 (2405546, 2018-03-11)"
   sodipodi:docname="button.svg">
  <defs
     id="defs4783">
    <linearGradient
       gradientUnits="userSpaceOnUse"
       x1="-819.20001"
       x2="819.20001"
       spreadMethod="pad"
       gradientTransform="matrix(0,0.00662104,-0.00597509,0,125.85293,274.03227)"
       id="gradient9">
      <stop
         offset="0"
         stop-color="#35BAF3"
         id="stop47" />
      <stop
         offset="1"
         stop-color="#1EA7E1"
         id="stop49" />
    </linearGradient>
    <linearGradient
       gradientUnits="userSpaceOnUse"
       x1="-819.20001"
       x2="819.20001"
       spreadMethod="pad"
       gradientTransform="matrix(0,0.00662104,-0.00597509,0,75.595241,273.22529)"
       id="gradient4">
      <stop
         offset="0"
         stop-color="#35BAF3"
         id="stop22" />
      <stop
         offset="1"
         stop-color="#1EA7E1"
         id="stop24" />
    </linearGradient>
  </defs>
  <sodipodi:namedview
     id="base"
     pagecolor="#ffffff"
     bordercolor="#666666"
     borderopacity="1.0"
     inkscape:pageopacity="0.0"
     inkscape:pageshadow="2"
     inkscape:zoom="1.4"
     inkscape:cx="304.66651"
     inkscape:cy="66.204644"
     inkscape:document-units="mm"
     inkscape:current-layer="layer1"
     showgrid="false"
     units="cm"
     inkscape:window-width="1920"
     inkscape:window-height="1057"
     inkscape:window-x="-8"
     inkscape:window-y="-8"
     inkscape:window-maximized="1" />
  <metadata
     id="metadata4786">
    <rdf:RDF>
      <cc:Work
         rdf:about="">
        <dc:format>image/svg+xml</dc:format>
        <dc:type
           rdf:resource="http://purl.org/dc/dcmitype/StillImage" />
        <dc:title></dc:title>
      </cc:Work>
    </rdf:RDF>
  </metadata>
  <g
     inkscape:label="Calque 1"
     inkscape:groupmode="layer"
     id="layer1"
     transform="translate(0,-267.00001)">
    <path
       d="m 1.2737829,268.67446 -0.01323,0.0529 -0.01323,0.1323 v 8.73125 q 0,0.52916 0.529166,0.52916 H 48.872322 q 0.529167,0 0.529167,-0.52916 v -8.73125 l -0.01323,-0.18521 0.01323,0.0132 q -0.0926,-0.35719 -0.529167,-0.35719 H 1.7764889 q -0.436562,0 -0.502708,0.34396 m -0.52916697,-0.0662 q 0.105834,-0.80698 1.03187497,-0.80698 H 48.872322 q 0.926042,0 1.045104,0.80698 l 0.01323,0.25136 v 8.73125 q 0,1.05833 -1.058334,1.05833 H 1.7764889 q -1.05833297,0 -1.05833297,-1.05833 v -8.73125 l 0.02646,-0.25136"
       id="path388"
       inkscape:connector-curvature="0"
       style="fill:#35baf3;stroke:none;stroke-width:0.26458332" />
    <path
       d="m 0.74461593,268.60831 -0.02646,0.25136 v 8.73125 q 0,1.05833 1.05833297,1.05833 H 48.872322 q 1.058334,0 1.058334,-1.05833 v -8.73125 l -0.01323,-0.25136 q -0.119062,-0.80698 -1.045104,-0.80698 H 1.7764889 q -0.92604097,0 -1.03187497,0.80698 m -0.555625,9.04875 v -8.79739 q 0,-1.5875 1.58749997,-1.5875 H 48.872322 q 1.5875,0 1.5875,1.5875 v 8.79739 q -0.03969,1.52136 -1.5875,1.52136 H 1.7764889 q -1.54781197,0 -1.58749997,-1.52136"
       id="path390"
       inkscape:connector-curvature="0"
       style="fill:#1989b8;stroke:none;stroke-width:0.26458332" />
    <path
       d="m 1.2737829,268.67446 q 0.06615,-0.34396 0.502708,-0.34396 H 48.872324 q 0.436563,0 0.529167,0.35719 l -0.01323,-0.0132 0.01323,0.18521 v 8.73125 q 0,0.52916 -0.529167,0.52916 H 1.7764909 q -0.529166,0 -0.529166,-0.52916 v -8.73125 l 0.01323,-0.1323 0.01323,-0.0529"
       id="path392"
       inkscape:connector-curvature="0"
       style="fill:#1ea7e1;stroke:none;stroke-width:0.26458332" />
    <path
       d="m 50.459824,277.65706 v 0.99219 q 0,1.5875 -1.5875,1.5875 H 1.7764909 q -1.58749997,0 -1.58749997,-1.5875 v -0.99219 q 0.03969,1.52136 1.58749997,1.52136 H 48.872324 q 1.547813,0 1.5875,-1.52136"
       id="path394"
       inkscape:connector-curvature="0"
       style="fill:#166e93;stroke:none;stroke-width:0.26458332" />
    <path
       d="m 51.015444,268.60831 q 0.10584,-0.80698 1.03188,-0.80698 h 47.095837 q 0.926039,0 1.045109,0.80698 l 0.0132,0.25136 v 8.73125 q 0,1.05833 -1.058339,1.05833 H 52.047324 q -1.05833,0 -1.05833,-1.05833 v -8.73125 l 0.0265,-0.25136 m 0.52917,0.0662 -0.0132,0.0529 -0.0132,0.1323 v 8.73125 q 0,0.52916 0.52917,0.52916 h 47.095837 q 0.52917,0 0.52917,-0.52916 v -8.73125 l -0.0132,-0.18521 0.0132,0.0132 q -0.0927,-0.35719 -0.52928,-0.35719 H 52.047324 q -0.43656,0 -0.50271,0.34396"
       id="path702"
       inkscape:connector-curvature="0"
       style="fill:#35baf3;stroke:none;stroke-width:0.26458332" />
    <path
       d="m 51.544614,268.67446 q 0.0662,-0.34396 0.50271,-0.34396 h 47.095837 q 0.43657,0 0.52917,0.35719 l -0.0132,-0.0132 0.0132,0.18521 v 8.73125 q 0,0.52916 -0.52917,0.52916 H 52.047324 q -0.52917,0 -0.52917,-0.52916 v -8.73125 l 0.0132,-0.1323 0.0132,-0.0529"
       id="path704"
       style="fill:url(#gradient4);stroke:none;stroke-width:0.26458332"
       inkscape:connector-curvature="0" />
    <path
       d="m 51.015444,268.60831 -0.02645,0.25136 v 8.73125 q 0,1.05833 1.05833,1.05833 h 47.095837 q 1.058339,0 1.058339,-1.05833 v -8.73125 l -0.0132,-0.25136 q -0.1191,-0.80698 -1.045139,-0.80698 H 52.047324 q -0.92604,0 -1.03188,0.80698 m -0.55562,9.04875 v -8.79739 q 0,-1.5875 1.5875,-1.5875 h 47.095837 q 1.587499,0 1.587499,1.5875 v 8.79739 q -0.0397,1.52136 -1.587499,1.52136 H 52.047324 q -1.54781,0 -1.5875,-1.52136"
       id="path706"
       inkscape:connector-curvature="0"
       style="fill:#1989b8;stroke:none;stroke-width:0.26458332" />
    <path
       d="m 50.459824,277.65706 q 0.0397,1.52136 1.5875,1.52136 h 47.095837 q 1.547819,0 1.587499,-1.52136 v 0.99219 q 0,1.5875 -1.587499,1.5875 H 52.047324 q -1.5875,0 -1.5875,-1.5875 v -0.99219"
       id="path708"
       inkscape:connector-curvature="0"
       style="fill:#166e93;stroke:none;stroke-width:0.26458332" />
    <path
       d="m 149.93002,269.66665 -0.0132,-0.18521 0.0132,0.0132 q -0.0926,-0.35719 -0.52917,-0.35719 h -47.09583 q -0.43656,0 -0.50271,0.34396 l -0.0132,0.0529 -0.0132,0.13229 v 8.73125 q 0,0.52917 0.52917,0.52917 h 47.09583 q 0.52917,0 0.52917,-0.52917 v -8.73125 m -0.52923,-1.05833 q 0.92604,0 1.04511,0.80697 l 0.0132,0.25136 v 8.73125 q 0,1.05833 -1.05834,1.05833 h -47.0958 q -1.05833,0 -1.05833,-1.05833 v -8.73125 l 0.0265,-0.25136 q 0.10579,-0.80697 1.03183,-0.80697 h 47.09583"
       id="path734"
       inkscape:connector-curvature="0"
       style="fill:#35baf3;stroke:none;stroke-width:0.26458332" />
    <path
       d="m 149.40085,268.60832 h -47.09583 q -0.92604,0 -1.03188,0.80697 l -0.0265,0.25136 v 8.73125 q 0,1.05833 1.05833,1.05833 h 47.09583 q 1.05834,0 1.05834,-1.05833 v -8.73125 l -0.0132,-0.25136 q -0.11905,-0.80697 -1.04509,-0.80697 m 1.5875,1.05833 v 8.79739 q -0.0397,1.52136 -1.5875,1.52136 h -47.09583 q -1.54781,0 -1.5875,-1.52136 v -8.79739 q 0,-1.5875 1.5875,-1.5875 h 47.09583 q 1.5875,0 1.5875,1.5875"
       id="path736"
       inkscape:connector-curvature="0"
       style="fill:#1989b8;stroke:none;stroke-width:0.26458332" />
    <path
       d="m 149.93002,269.66665 v 8.73125 q 0,0.52917 -0.52917,0.52917 h -47.09583 q -0.52917,0 -0.52917,-0.52917 v -8.73125 l 0.0132,-0.13229 0.0132,-0.0529 q 0.0661,-0.34396 0.50271,-0.34396 h 47.09583 q 0.43657,0 0.52917,0.35719 l -0.0132,-0.0132 0.0132,0.18521"
       id="path738"
       style="fill:url(#gradient9);stroke:none;stroke-width:0.26458332"
       inkscape:connector-curvature="0" />
  </g>
</svg>
